<svg width="113" height="27" viewBox="0 0 113 27" fill="none" xmlns="http://www.w3.org/2000/svg">
<path d="M62.2793 23.2916C62.0096 23.2498 61.6752 23.3258 61.66 23.3296L61.6524 23.3334C61.432 23.3942 61.1889 23.4968 60.9077 23.6449C60.6873 23.7627 60.3985 23.8805 60.049 24.0021C59.7032 24.1237 59.2891 24.2263 58.8217 24.3137C58.3771 24.3973 56.8041 24.6252 55.2387 24.1503C54.6117 23.9641 54.0342 23.6753 53.5099 23.2954C53.0007 22.9268 52.5865 22.4633 52.2788 21.9237C51.9748 21.3994 51.8228 20.7762 51.8228 20.0695C51.8228 19.5186 51.9254 19.055 52.1268 18.6941C52.3396 18.3179 52.6093 17.9949 52.9323 17.7404C53.2667 17.4782 53.6124 17.273 53.9924 17.1286C54.3686 16.9842 54.5281 16.9234 55.0183 16.7563C55.1589 16.7069 55.3033 16.6727 55.4362 16.6385C55.8048 16.5473 56.1886 16.4485 56.143 16.1179C56.0974 15.795 55.7478 15.776 55.3831 15.757C55.2235 15.7494 55.0449 15.738 54.8549 15.7114C54.2736 15.624 53.2971 15.1832 52.6739 14.5981C52.0774 14.0357 51.7886 13.3176 51.7886 12.3943C51.7886 11.8054 51.8988 11.1898 52.1116 10.5629C52.351 9.87137 52.8753 9.23304 53.0881 8.98986C53.2021 8.86067 53.3731 8.72009 53.5402 8.5871C53.9126 8.28693 54.2318 8.02476 54.0912 7.73979C54.0684 7.6942 54.019 7.6334 53.924 7.603C53.563 7.49282 52.6093 7.96397 52.3928 8.08555C51.8456 8.39332 51.4999 8.6403 51.0629 8.95566L50.7779 9.15704C50.1586 9.5978 49.5697 10.1601 49.0301 10.8365C48.4906 11.5128 48.0308 12.3221 47.6623 13.2492C47.2861 14.1877 47.0999 15.3048 47.0999 16.5625C47.0999 17.9721 47.3507 19.2906 47.8408 20.4837C48.3348 21.6729 49.0415 22.7178 49.9496 23.5841C50.8577 24.4505 51.9748 25.1306 53.2667 25.6055C54.5509 26.0805 56.01 26.3199 57.5944 26.3199C58.8217 26.3199 59.8438 26.1717 60.6227 25.8791C61.4244 25.5789 61.9906 25.2674 62.3667 24.9216C62.4465 24.8456 62.5225 24.743 62.6213 24.591C62.7391 24.3973 62.8379 24.0363 62.7923 23.8083C62.7163 23.436 62.4693 23.322 62.2793 23.2916Z" fill="black"/>
<path d="M65.9308 12.7629C65.737 12.0751 65.4444 11.3874 65.0606 10.7149C64.6769 10.0462 64.2057 9.41542 63.6586 8.83788C63.0924 8.24514 62.4275 7.78539 61.6904 7.47002C61.2724 7.29144 60.7329 7.13946 60.4023 7.06346C59.9844 6.96847 59.3118 6.84689 58.6773 6.79369C58.3581 6.76709 56.5419 6.6949 56.1924 7.01787C56.1316 7.07486 56.1012 7.14326 56.1012 7.21925C56.1012 7.50802 56.5381 7.6486 58.039 7.97917L58.3391 8.04376C58.8065 8.15015 59.4334 8.40473 59.935 8.6935C60.3833 8.95187 60.7861 9.26344 61.128 9.613C61.4586 9.95496 61.736 10.3539 61.945 10.8061C62.1463 11.2392 62.2451 11.7218 62.2451 12.2385C62.2451 13.1124 62.0589 13.7698 61.6942 14.1839C61.166 14.7843 60.5999 15.2478 59.9616 15.5974C59.8476 15.6582 59.7374 15.7 59.6386 15.738C59.4334 15.814 59.1826 15.9089 59.213 16.1939C59.2396 16.4371 59.5892 16.4979 59.9578 16.5625C60.011 16.5701 60.0566 16.5777 60.0908 16.5853C60.3415 16.6385 60.6417 16.7221 60.9533 16.8095C61.1318 16.8588 61.318 16.912 61.5004 16.9576C62.0324 17.0982 62.6327 17.1704 63.2748 17.1704C64.0917 17.1704 64.7757 17.0146 65.3 16.7107C65.9156 16.3497 66.2271 15.6316 66.2271 14.5753C66.2233 14.0661 66.1245 13.4544 65.9308 12.7629Z" fill="black"/>
<path d="M15.7076 8.67449C14.3967 7.24964 12.5273 6.52772 10.1563 6.52772C9.01647 6.52772 7.96017 6.62271 7.01787 6.81269C6.08697 6.99887 5.27765 7.22305 4.61272 7.48142C3.92499 7.74739 3.40445 8.00576 3.02829 8.26794C2.59133 8.56811 2.23037 8.85308 2.23037 9.29383C2.23037 9.5788 2.38615 9.94356 2.82311 10.1069C3.00169 10.1753 3.17647 10.2095 3.33605 10.2095C3.8718 10.2095 4.57853 10.0728 5.49803 9.79538C6.27695 9.5598 7.29904 9.44202 8.53391 9.44202C8.83028 9.44202 9.21784 9.50661 9.6852 9.6282C10.1449 9.75358 10.5895 9.94736 11.0037 10.2057C11.4064 10.4565 11.7598 10.7757 12.0561 11.1594C12.3107 11.49 12.4323 11.8624 12.4323 12.3031C12.4323 12.7249 12.3297 13.0706 12.1169 13.3632C11.8738 13.7052 11.566 13.9939 11.205 14.2295C10.8327 14.4689 10.4071 14.6551 9.93977 14.7767C9.45722 14.902 9.01266 14.9666 8.60991 14.9666C7.7094 14.9666 6.7633 15.0388 5.7944 15.187C4.7951 15.3352 3.8642 15.624 3.02829 16.0381C2.16578 16.4713 1.44385 17.0678 0.877709 17.8201C0.300169 18.6029 0 19.6212 0 20.8446C0 22.0605 0.265972 23.0636 0.794118 23.8311C1.29187 24.5606 1.88081 25.1382 2.53434 25.5485C3.18027 25.9513 3.8414 26.2211 4.49493 26.3503C5.12187 26.4756 5.58922 26.5364 5.91979 26.5364C6.24275 26.5364 6.60751 26.5022 7.03307 26.4301C7.43963 26.3617 7.86138 26.2667 8.30214 26.1451C8.75049 26.0159 9.17985 25.8525 9.57501 25.6549C9.94737 25.4688 10.0728 25.351 10.4527 25.0774C10.6237 24.9558 10.8783 24.9368 11.1024 25.0508C11.2886 25.1496 11.452 25.2408 11.8282 25.3814C12.2119 25.5219 12.4855 25.5865 12.8845 25.6587C13.2644 25.7271 13.6292 25.7727 13.9674 25.7993C14.3131 25.8297 14.5829 25.8411 14.8147 25.8411C16.1179 25.8411 16.7639 25.2332 17.0754 24.724C17.463 24.0895 17.6568 23.3828 17.6568 22.6152V14.8755C17.6606 12.1739 17.0032 10.0879 15.7076 8.67449ZM10.6351 23.5955C10.4489 23.6677 10.107 23.7095 10.107 23.7095C9.58261 23.7779 9.02026 23.7589 8.42373 23.6563C7.83479 23.5576 7.28384 23.3676 6.7861 23.094C6.30735 22.8318 5.92359 22.4937 5.60822 22.0605C5.31945 21.6653 5.18266 21.2018 5.18266 20.6547C5.18266 20.0315 5.33845 19.5262 5.65761 19.1082C6.01478 18.6371 6.44033 18.2457 6.91908 17.9455C7.41683 17.634 7.91458 17.3984 8.39333 17.2502C9.01267 17.0602 9.27864 17.0298 9.38503 17.0298C9.6396 17.0298 9.96257 17.0944 10.3387 17.2236C10.7225 17.3566 11.0948 17.5504 11.4482 17.8049C11.7902 18.0519 12.0751 18.3483 12.2955 18.6827C12.4931 18.9828 12.6185 19.397 12.6185 19.7161C12.6185 20.0353 12.5083 20.704 12.3449 21.122C12.1663 21.5818 11.965 21.9997 11.7446 22.3569C11.528 22.714 11.3076 23.0066 11.0759 23.2498C10.9163 23.4208 10.7833 23.5348 10.6351 23.5955Z" fill="black"/>
<path d="M31.7381 6.14396C32.0914 6.21236 32.4144 6.33774 32.6994 6.51253C32.9844 6.69111 33.2237 6.91528 33.4137 7.18886C33.6037 7.46243 33.7025 7.80059 33.7025 8.21095C33.7025 9.16465 33.0869 9.87518 31.8597 10.3387C31.4227 10.5021 31.0162 10.6389 30.6324 10.7491C30.2486 10.8555 29.8877 10.9809 29.5495 11.1176C29.2075 11.2544 28.8656 11.4178 28.5274 11.6116C28.1855 11.8016 27.8359 12.0751 27.4825 12.4285C27.1558 12.7553 26.8898 13.158 26.6846 13.633C26.4794 14.1117 26.3161 14.6133 26.1945 15.1452C26.0729 15.6772 25.9855 16.2167 25.9285 16.7601C25.8753 17.3072 25.8487 17.7822 25.8487 18.1925V22.2011C25.8487 22.6115 25.8069 23.056 25.7271 23.531C25.6435 24.0059 25.4991 24.4429 25.2978 24.838C25.0926 25.2332 24.8266 25.5676 24.4998 25.8411C24.1731 26.1147 23.7475 26.2477 23.2308 26.2477C22.3037 26.2477 21.6273 25.8791 21.2056 25.142C20.78 24.4049 20.571 23.4246 20.571 22.1973V14.5107C20.571 13.2036 20.5824 12.0296 20.6128 10.9923C20.6394 9.95497 20.7192 9.23304 20.856 8.82269C21.0726 8.14256 21.464 7.57642 22.0225 7.12426C22.581 6.67591 23.2156 6.45173 23.9261 6.45173C24.3896 6.45173 24.8456 6.50873 25.2978 6.61511C25.7461 6.7253 26.2705 6.7785 26.8708 6.7785C27.2508 6.7785 27.6079 6.7367 27.9347 6.65691C28.2614 6.57332 28.573 6.49353 28.8732 6.40994C29.1734 6.33014 29.4735 6.24655 29.7737 6.16676C30.0739 6.08317 30.3854 6.04137 30.7122 6.04137C31.039 6.04137 31.3809 6.07937 31.7381 6.14396Z" fill="black"/>
<path d="M45.5231 23.4816C45.2609 23.3144 44.9684 23.1434 44.6492 22.961C44.3604 22.7976 44.1134 22.6115 43.8931 22.3873C43.3041 21.7984 42.8824 21.2056 42.6468 20.6281C42.4074 20.0505 42.2858 19.4084 42.2858 18.7283V13.4088C42.2858 12.4399 42.491 11.6952 42.8976 11.1937C43.3345 10.6541 43.8133 10.2134 44.3224 9.88279C44.8544 9.53702 45.3521 9.24065 45.8081 9.00128C46.549 8.60992 46.7048 8.07038 46.7048 7.68282C46.7048 7.25346 46.5908 6.92289 46.3666 6.69872C46.188 6.52014 45.9448 6.34916 45.6485 6.18577L44.6492 5.63103C44.2882 5.43345 43.8703 5.09529 43.3953 4.62413C43.0609 4.31257 42.8102 3.9478 42.6544 3.54125C42.4644 3.0473 42.2896 2.61414 42.1148 2.21898C41.9249 1.77443 41.6893 1.39447 41.4157 1.0905C41.0966 0.737137 40.6444 0.554756 40.0707 0.554756C39.4893 0.554756 39.0372 0.748536 38.7332 1.1247C38.4786 1.43626 38.262 1.82002 38.0835 2.26838C37.9201 2.67874 37.7491 3.11949 37.5705 3.58304C37.4109 3.9934 37.1868 4.35056 36.9018 4.63553C36.5028 5.03449 36.0469 5.46385 35.5491 5.9084C34.964 6.42895 34.6638 7.01409 34.6638 7.64482C34.6638 8.15777 34.869 8.61752 35.2718 9.00508C35.5985 9.31665 35.9671 9.67381 36.3736 10.0652C36.7574 10.4337 37.107 10.8897 37.4147 11.4178C37.7073 11.9156 37.8517 12.5995 37.8517 13.4544V18.7321C37.8517 19.739 37.9277 20.7155 38.0797 21.6388C38.2354 22.5963 38.5432 23.4664 38.984 24.2225C39.4361 24.9976 40.0669 25.6246 40.861 26.0805C41.6551 26.5365 42.6658 26.7644 43.8741 26.7644C44.4896 26.7644 45.0785 26.6618 45.6257 26.4529C46.454 26.1413 46.6288 25.5296 46.6288 25.0736C46.6288 24.6785 46.5034 24.3403 46.2602 24.0781C46.055 23.8615 45.8081 23.6602 45.5231 23.4816Z" fill="black"/>
<path d="M78.9634 0.163383C79.4004 0.273572 79.7955 0.436955 80.1451 0.653532C80.4947 0.87011 80.7758 1.15508 80.981 1.50844C81.1862 1.86181 81.2926 2.26457 81.2926 2.72432C81.2926 3.18407 81.19 3.55643 80.981 3.8338C80.7758 4.11497 80.5137 4.35435 80.1983 4.55953C79.8829 4.76471 79.5372 4.95469 79.161 5.12187C78.7848 5.29285 78.4391 5.47903 78.1275 5.68421C77.8121 5.88939 77.55 6.14396 77.3448 6.44793C77.1396 6.7519 77.037 7.13186 77.037 7.59161C77.037 8.22235 77.2232 8.6935 77.5994 9.00887C77.9755 9.32423 78.3859 9.6092 78.8342 9.86378C79.2826 10.1184 79.6967 10.4223 80.0691 10.7719C80.4453 11.1214 80.6314 11.6648 80.6314 12.3905C80.6314 12.8997 80.5327 13.2948 80.3389 13.5722C80.1451 13.8496 79.9095 14.0851 79.6284 14.2789C79.3472 14.4727 79.0394 14.6589 78.7012 14.8413C78.3631 15.0236 78.0515 15.2592 77.7741 15.5518C77.4968 15.8444 77.2612 16.2167 77.0674 16.6765C76.8736 17.1362 76.7748 17.7442 76.7748 18.4927V23.4018C76.7748 23.8387 76.7026 24.2681 76.5545 24.6936C76.4101 25.1154 76.2049 25.5068 75.9351 25.8563C75.6692 26.2059 75.3538 26.4871 74.989 26.6922C74.6281 26.8974 74.2139 27 73.7542 27C72.7131 27 71.9227 26.6352 71.3908 25.9095C70.8589 25.1838 70.5891 24.3479 70.5891 23.4018V17.9949C70.5891 17.121 70.4447 16.4561 70.1521 15.9963C69.8596 15.5366 69.5404 15.1414 69.187 14.8147C68.8375 14.4879 68.5145 14.1535 68.2219 13.8154C67.9294 13.4772 67.785 12.9795 67.785 12.3259C67.785 11.8168 67.9446 11.3684 68.2561 10.9809C68.5715 10.5933 68.9211 10.2057 69.3086 9.81818C69.6962 9.43062 70.0495 9.00127 70.3611 8.52632C70.6765 8.05517 70.8323 7.46623 70.8323 6.7633C70.8323 5.7716 71.0032 4.8597 71.3414 4.03518C71.6796 3.21067 72.1469 2.49634 72.7435 1.8922C73.3362 1.28807 74.0467 0.820715 74.8712 0.490149C75.6958 0.163383 76.6039 0 77.5994 0C78.0781 0 78.5265 0.0531945 78.9634 0.163383Z" fill="black"/>
<path d="M87.5999 7.09386C87.9951 7.42063 88.318 7.83858 88.5612 8.34013C88.8082 8.84548 88.983 9.41922 89.0932 10.0576C89.1995 10.6997 89.2565 11.3342 89.2565 11.9612V22.0567C89.2565 22.6038 89.2071 23.1472 89.1122 23.6943C89.0172 24.2415 88.8538 24.7468 88.622 25.2066C88.3902 25.6701 88.0711 26.0463 87.6607 26.3313C87.2541 26.62 86.7336 26.7606 86.1067 26.7606C85.5595 26.7606 85.1112 26.62 84.754 26.3313C84.4006 26.0463 84.1157 25.6701 83.8953 25.2066C83.6749 24.743 83.5191 24.2377 83.4241 23.6943C83.3292 23.151 83.2798 22.6038 83.2798 22.0567V11.9612C83.2798 11.3076 83.3216 10.6579 83.4013 10.0196C83.4849 9.38122 83.6331 8.80748 83.8535 8.30213C84.0701 7.79679 84.3626 7.38643 84.7312 7.07486C85.0998 6.76329 85.5557 6.60371 86.1029 6.60371C86.707 6.59991 87.2048 6.76329 87.5999 7.09386Z" fill="black"/>
<path d="M87.6189 0.847315C87.9875 1.23108 88.1699 1.69083 88.1699 2.22657C88.1699 2.79271 87.9951 3.54884 87.6265 3.9174C87.258 4.28596 86.802 4.46834 86.2549 4.46834C85.7077 4.46834 85.2594 4.27836 84.906 3.8946C84.5488 3.51084 84.3627 2.75092 84.3627 2.18478C84.3627 1.64523 84.545 1.19308 84.9136 0.824518C85.2822 0.455956 85.7229 0.273575 86.2435 0.273575C86.7944 0.273575 87.2504 0.463555 87.6189 0.847315Z" fill="black"/>
<path d="M112.339 11.5964L112.343 11.6078L112.339 11.5964C111.952 10.4527 111.416 9.51042 110.747 8.79609C110.071 8.07416 109.284 7.55362 108.414 7.25345L108.35 7.23065C106.495 6.61512 104.611 6.85829 104.075 6.94568C103.554 7.03307 103.095 7.15466 102.7 7.31044C102.323 7.46243 101.981 7.63341 101.685 7.81959C101.434 7.97917 101.21 8.12736 100.994 8.28314C100.788 8.44653 100.701 8.49212 100.557 8.54152C100.42 8.58331 100.298 8.59091 100.108 8.56431C99.6941 8.49972 99.3749 8.43513 99.1203 8.36293C98.8506 8.29074 98.6112 8.21475 98.3984 8.13876C98.1286 8.04377 97.8551 7.96018 97.5321 7.88038C97.2091 7.80059 96.0806 7.58022 95.1307 7.99817C94.6596 8.20715 94.2758 8.57951 93.9833 9.11146C93.7667 9.51042 93.6071 10.0272 93.4969 10.6883C93.4019 11.2658 93.3525 12.0068 93.3525 12.8921V22.0529C93.3525 23.493 93.5349 24.5341 93.9073 25.2294C94.12 25.6283 94.6824 26.6846 95.7843 26.6846C96.111 26.6846 96.9204 26.5858 97.4333 25.6663C97.6233 25.3206 97.7677 24.9102 97.8665 24.4087C97.95 23.9945 98.0108 23.5196 98.0526 22.999C98.0906 22.4823 98.1096 21.9579 98.1096 21.4412V17.7632C98.1096 16.7259 98.2046 15.8254 98.3908 15.0844C98.5808 14.3321 98.8126 13.6862 99.0785 13.1656C99.3407 12.6527 99.6219 12.2195 99.9106 11.8814C100.268 11.4634 100.754 10.9543 100.857 10.8517L100.899 10.8099C100.918 10.7909 101.001 10.7377 101.108 10.7149C101.21 10.6921 101.392 10.6997 101.757 10.7111H101.803C102.757 10.7111 103.649 10.8213 104.459 11.0417C105.188 11.2392 105.823 11.5698 106.351 12.0258C106.872 12.4741 107.297 13.082 107.609 13.8306C107.935 14.6057 108.099 15.6126 108.099 16.8247V22.4139C108.099 25.2712 108.927 26.7188 110.565 26.7188C111.686 26.7188 112.389 25.8829 112.655 24.2301C112.81 23.2612 112.886 22.0301 112.886 20.5711V15.6696C112.898 14.0661 112.708 12.6945 112.339 11.5964Z" fill="black"/>
</svg>
